<svg width="26" height="18" viewBox="0 0 26 18" fill="none" xmlns="http://www.w3.org/2000/svg">
<g clip-path="url(#clip0_135_75)">
<path d="M1.41976 0H24.5802C25.3631 0.00421151 26 0.642255 26 1.42139V16.5786C26 17.3598 25.3568 18 24.5718 18H1.41976C0.638997 17.9958 0 17.3577 0 16.5786V1.42139C0 0.642255 0.636882 0.00421151 1.41976 0Z" fill="#FF9933"/>
<path d="M0 5.99927H26V12.0007H0V5.99927Z" fill="white"/>
<path d="M0 12.0007H26V16.5786C26 17.3598 25.3568 18 24.5718 18H1.41976C0.638997 17.9958 0 17.3577 0 16.5786V12.0007Z" fill="#128807"/>
<path d="M15.4121 8.99999C15.4121 7.67336 14.333 6.59943 13 6.59943C11.667 6.59943 10.5879 7.67336 10.5879 8.99999C10.5879 10.3245 11.667 11.4005 13 11.4005C14.333 11.4005 15.4121 10.3266 15.4121 8.99999Z" fill="#000088"/>
<path d="M15.1097 9.00001C15.1097 7.83974 14.166 6.90057 13.0002 6.90057C11.8343 6.90057 10.8906 7.83974 10.8906 9.00001C10.8906 10.1603 11.8343 11.0995 13.0002 11.0995C14.166 11.0995 15.1097 10.1603 15.1097 9.00001Z" fill="white"/>
<path d="M13.4212 9.00001C13.4212 8.76838 13.2329 8.57886 13.0002 8.57886C12.7674 8.57886 12.5791 8.76627 12.5791 9.00001C12.5791 9.23164 12.7674 9.41905 13.0002 9.41905C13.2329 9.41905 13.4212 9.23164 13.4212 9.00001Z" fill="#000088"/>
<path d="M15.1964 9.28849C15.2049 9.23164 15.1625 9.17899 15.1054 9.17057C15.0483 9.16215 14.9954 9.20426 14.9869 9.26112C14.9785 9.31797 15.0208 9.37062 15.0779 9.37904C15.1371 9.38536 15.19 9.34535 15.1964 9.28849Z" fill="#000088"/>
<path d="M13.0002 11.0994L13.0721 9.84019L13.0002 9.24005L12.9282 9.84019L13.0002 11.0994Z" fill="#000088"/>
<path d="M15.0463 9.84439C15.0695 9.79175 15.042 9.72857 14.9891 9.70751C14.9362 9.68435 14.8728 9.71173 14.8516 9.76437C14.8283 9.81701 14.8558 9.88019 14.9087 9.90124C14.9637 9.9223 15.0251 9.89703 15.0463 9.84439Z" fill="black"/>
<path d="M12.4541 11.0278L12.8519 9.82966L12.9386 9.23163L12.7122 9.79386L12.4541 11.0278Z" fill="black"/>
<path d="M14.7583 10.3435C14.7943 10.2971 14.7858 10.2319 14.7392 10.1961C14.6927 10.1603 14.6271 10.1687 14.5911 10.215C14.5552 10.2613 14.5636 10.3266 14.6102 10.3624C14.6567 10.3982 14.7223 10.3877 14.7583 10.3435Z" fill="black"/>
<path d="M11.9443 10.8194L12.6405 9.76442L12.8796 9.2085L12.5156 9.69071L11.9443 10.8194Z" fill="black"/>
<path d="M14.3476 10.7499C14.3942 10.7141 14.4027 10.6488 14.3667 10.6025C14.3307 10.5561 14.2651 10.5477 14.2186 10.5835C14.172 10.6193 14.1636 10.6846 14.1995 10.7309C14.2355 10.7751 14.3032 10.7857 14.3476 10.7499Z" fill="black"/>
<path d="M11.5083 10.4846L12.4541 9.64439L12.8286 9.17059L12.3525 9.54331L11.5083 10.4846Z" fill="black"/>
<path d="M13.8485 11.0384C13.9014 11.0152 13.9289 10.9542 13.9056 10.9015C13.8824 10.8489 13.821 10.8215 13.7681 10.8447C13.7152 10.8657 13.6877 10.9289 13.711 10.9815C13.7321 11.0342 13.7935 11.0594 13.8485 11.0384Z" fill="black"/>
<path d="M11.1719 10.0508L12.306 9.48225L12.7905 9.12006L12.2319 9.35801L11.1719 10.0508Z" fill="black"/>
<path d="M13.29 11.1857C13.3472 11.1773 13.3874 11.1247 13.381 11.0678C13.3726 11.011 13.3197 10.971 13.2625 10.9773C13.2054 10.9857 13.1652 11.0383 13.1716 11.0952C13.1779 11.1542 13.2308 11.1942 13.29 11.1857Z" fill="black"/>
<path d="M10.9624 9.54328L12.2044 9.28638L12.7673 9.06317L12.1663 9.1474L10.9624 9.54328Z" fill="black"/>
<path d="M12.7103 11.1858C12.7674 11.1942 12.8203 11.1521 12.8288 11.0953C12.8372 11.0384 12.7949 10.9858 12.7378 10.9773C12.6807 10.9689 12.6278 11.011 12.6193 11.0679C12.613 11.1268 12.6532 11.1795 12.7103 11.1858Z" fill="black"/>
<path d="M10.8906 9L12.1559 9.0716L12.759 9L12.1559 8.92841L10.8906 9Z" fill="black"/>
<path d="M12.1515 11.0384C12.2044 11.0616 12.2679 11.0342 12.289 10.9815C12.3102 10.9289 12.2848 10.8657 12.2319 10.8447C12.179 10.8215 12.1155 10.8489 12.0944 10.9015C12.0732 10.9542 12.0986 11.0152 12.1515 11.0384Z" fill="black"/>
<path d="M10.9624 8.45673L12.1663 8.85261L12.7673 8.93894L12.2044 8.71363L10.9624 8.45673Z" fill="black"/>
<path d="M11.6501 10.7499C11.6967 10.7857 11.7623 10.7772 11.7982 10.7309C11.8342 10.6846 11.8258 10.6193 11.7792 10.5835C11.7327 10.5477 11.6671 10.5561 11.6311 10.6025C11.5972 10.6488 11.6057 10.7141 11.6501 10.7499Z" fill="black"/>
<path d="M11.1719 7.94922L12.2319 8.64201L12.7905 8.87996L12.306 8.51777L11.1719 7.94922Z" fill="black"/>
<path d="M11.2419 10.3435C11.2778 10.3898 11.3434 10.3982 11.39 10.3624C11.4365 10.3266 11.445 10.2613 11.409 10.215C11.373 10.1687 11.3075 10.1603 11.2609 10.1961C11.2165 10.2298 11.2059 10.2971 11.2419 10.3435Z" fill="black"/>
<path d="M11.5083 7.51544L12.3525 8.45671L12.8286 8.83154L12.4541 8.35564L11.5083 7.51544Z" fill="black"/>
<path d="M10.9518 9.84439C10.9751 9.89703 11.0364 9.92441 11.0893 9.90124C11.1422 9.87808 11.1697 9.81701 11.1465 9.76437C11.1232 9.71173 11.0618 9.68435 11.0089 9.70751C10.956 9.72857 10.9306 9.78964 10.9518 9.84439Z" fill="black"/>
<path d="M11.9443 7.1806L12.5156 8.30929L12.8796 8.79151L12.6405 8.23769L11.9443 7.1806Z" fill="black"/>
<path d="M10.8039 9.2885C10.8123 9.34536 10.8652 9.38537 10.9223 9.37905C10.9795 9.37062 11.0197 9.31798 11.0133 9.26113C11.0049 9.20427 10.952 9.16426 10.8948 9.17058C10.8356 9.17689 10.7954 9.22954 10.8039 9.2885Z" fill="black"/>
<path d="M12.4541 6.97217L12.7122 8.20825L12.9386 8.76838L12.8519 8.17034L12.4541 6.97217Z" fill="black"/>
<path d="M10.8038 8.7115C10.7954 8.76836 10.8377 8.821 10.8948 8.82943C10.9519 8.83785 11.0048 8.79573 11.0133 8.73888C11.0217 8.68202 10.9794 8.62938 10.9223 8.62096C10.8631 8.61464 10.8102 8.65465 10.8038 8.7115Z" fill="black"/>
<path d="M13.0002 6.90057L12.9282 8.15982L13.0002 8.75996L13.0721 8.15982L13.0002 6.90057Z" fill="black"/>
<path d="M10.9541 8.15558C10.9309 8.20823 10.9584 8.2714 11.0113 8.29246C11.0642 8.31351 11.1276 8.28825 11.1488 8.2356C11.1721 8.18296 11.1446 8.11978 11.0917 8.09873C11.0367 8.07767 10.9753 8.10294 10.9541 8.15558Z" fill="black"/>
<path d="M13.5461 6.97217L13.1483 8.17034L13.0615 8.76838L13.2879 8.20825L13.5461 6.97217Z" fill="black"/>
<path d="M11.2415 7.65862C11.2055 7.70494 11.214 7.77022 11.2606 7.80602C11.3071 7.84182 11.3727 7.83339 11.4087 7.78707C11.4446 7.74074 11.4362 7.67546 11.3896 7.63967C11.3431 7.60387 11.2775 7.61229 11.2415 7.65862Z" fill="black"/>
<path d="M14.0558 7.1806L13.3597 8.23769L13.1206 8.79151L13.4845 8.30929L14.0558 7.1806Z" fill="black"/>
<path d="M11.6522 7.2501C11.6056 7.2859 11.5971 7.35118 11.6331 7.3975C11.6691 7.44383 11.7347 7.45225 11.7812 7.41645C11.8278 7.38066 11.8362 7.31538 11.8003 7.26905C11.7643 7.22273 11.6966 7.21641 11.6522 7.2501Z" fill="black"/>
<path d="M14.4917 7.51544L13.5459 8.35564L13.1714 8.83154L13.6475 8.45671L14.4917 7.51544Z" fill="black"/>
<path d="M12.1515 6.96373C12.0986 6.98689 12.0732 7.04796 12.0944 7.1006C12.1176 7.15325 12.179 7.18062 12.2319 7.15746C12.2848 7.13429 12.3123 7.07323 12.289 7.02058C12.2679 6.96583 12.2065 6.94056 12.1515 6.96373Z" fill="black"/>
<path d="M14.8281 7.94922L13.694 8.51777L13.2095 8.87996L13.7681 8.64201L14.8281 7.94922Z" fill="black"/>
<path d="M12.7103 6.81425C12.6532 6.82267 12.613 6.87531 12.6193 6.93217C12.6278 6.98902 12.6807 7.02903 12.7378 7.02272C12.7949 7.01429 12.8372 6.96165 12.8288 6.90479C12.8224 6.84794 12.7695 6.80582 12.7103 6.81425Z" fill="black"/>
<path d="M15.0378 8.45673L13.7957 8.71363L13.2329 8.93894L13.8338 8.85261L15.0378 8.45673Z" fill="black"/>
<path d="M13.29 6.81425C13.2329 6.80582 13.18 6.84794 13.1715 6.90479C13.163 6.96165 13.2053 7.01429 13.2625 7.02272C13.3196 7.03114 13.3725 6.98902 13.381 6.93217C13.3873 6.87531 13.3471 6.82056 13.29 6.81425Z" fill="black"/>
<path d="M15.1095 9L13.8442 8.92841L13.2412 9L13.8442 9.0716L15.1095 9Z" fill="black"/>
<path d="M13.8485 6.96374C13.7956 6.94058 13.7321 6.96795 13.711 7.0206C13.6877 7.07324 13.7152 7.13641 13.7681 7.15747C13.821 7.17853 13.8845 7.15326 13.9056 7.10061C13.9268 7.04587 13.9014 6.9848 13.8485 6.96374Z" fill="black"/>
<path d="M15.0378 9.54328L13.8338 9.1474L13.2329 9.06317L13.7957 9.28638L15.0378 9.54328Z" fill="black"/>
<path d="M14.3476 7.25014C14.3011 7.21434 14.2355 7.22276 14.1995 7.26909C14.1636 7.31542 14.172 7.3807 14.2186 7.41649C14.2651 7.45229 14.3307 7.44387 14.3667 7.39754C14.4027 7.35122 14.3942 7.28594 14.3476 7.25014Z" fill="black"/>
<path d="M14.8281 10.0508L13.7681 9.35801L13.2095 9.12006L13.694 9.48225L14.8281 10.0508Z" fill="black"/>
<path d="M14.7583 7.65862C14.7223 7.61229 14.6567 7.60387 14.6102 7.63967C14.5636 7.67546 14.5552 7.74074 14.5911 7.78707C14.6271 7.83339 14.6927 7.84182 14.7392 7.80602C14.7837 7.77022 14.7943 7.70284 14.7583 7.65862Z" fill="black"/>
<path d="M14.4917 10.4846L13.6475 9.54331L13.1714 9.17059L13.5459 9.64439L14.4917 10.4846Z" fill="black"/>
<path d="M15.0482 8.15561C15.0249 8.10296 14.9636 8.07559 14.9107 8.09875C14.8578 8.12191 14.8303 8.18298 14.8536 8.23562C14.8768 8.28827 14.9382 8.31354 14.9911 8.29248C15.044 8.27142 15.0694 8.21036 15.0482 8.15561Z" fill="black"/>
<path d="M14.0558 10.8194L13.4845 9.69071L13.1206 9.2085L13.3597 9.76442L14.0558 10.8194Z" fill="black"/>
<path d="M15.1965 8.7115C15.188 8.65465 15.1351 8.61464 15.078 8.62096C15.0208 8.62938 14.9806 8.68202 14.987 8.73888C14.9955 8.79573 15.0483 8.83574 15.1055 8.82943C15.1647 8.82311 15.2049 8.77046 15.1965 8.7115Z" fill="black"/>
<path d="M13.5461 11.0278L13.2879 9.79386L13.0615 9.23163L13.1483 9.82966L13.5461 11.0278Z" fill="black"/>
</g>
<defs>
<clipPath id="clip0_135_75">
<rect width="26" height="18" fill="white"/>
</clipPath>
</defs>
</svg>
