<svg width="160" height="43" viewBox="0 0 160 43" fill="none" xmlns="http://www.w3.org/2000/svg">
<path d="M42.5275 34.589C42.2125 34.589 42.0549 34.4312 42.0549 34.1165V9.86638C42.0549 9.55139 42.2125 9.39385 42.5275 9.39385H55.4747C55.7897 9.39385 55.9472 9.55139 55.9472 9.86638V13.949C55.9472 14.2637 55.7897 14.4215 55.4747 14.4215H48.349V20.7345H54.5297C54.8446 20.7345 55.0022 20.8923 55.0022 21.207V25.2897C55.0022 25.6044 54.8446 25.7622 54.5297 25.7622H48.349V34.1165C48.349 34.4312 48.1915 34.589 47.8765 34.589H42.5275ZM64.406 40.8831C64.0911 40.8831 63.9335 40.7253 63.9335 40.4105V37.462C63.9335 37.2229 64.028 37.084 64.217 37.0462L66.9955 36.3468L68.9423 35.3073C69.1313 35.2061 69.2258 35.0115 69.2258 34.7213V31.6215L67.468 33.2659C67.2539 33.4805 67.0018 33.5873 66.712 33.5873L63.4988 33.7007C63.209 33.7007 62.957 33.5995 62.7428 33.3982L59.2839 29.9204C59.0697 29.7191 58.9625 29.4668 58.9625 29.1644V14.2703C58.9625 13.9556 59.1201 13.7978 59.4351 13.7978H64.4817C64.7967 13.7978 64.9542 13.9556 64.9542 14.2703V28.5029C64.9542 28.9187 65.0298 29.2088 65.181 29.3723C65.3322 29.5358 65.6095 29.618 66.0126 29.618H68.4131V14.2703C68.4131 13.9556 68.5706 13.7978 68.8856 13.7978H73.9322C74.2473 13.7978 74.4047 13.9556 74.4047 14.2703V36.9895C74.4047 37.3675 74.2977 37.6198 74.0834 37.7455L71.5696 39.3521L68.3753 40.6752C68.1863 40.7508 68.0414 40.8009 67.9406 40.8264C67.8524 40.8642 67.7075 40.8831 67.5058 40.8831H64.406ZM79.2961 34.589C78.981 34.589 78.8235 34.4312 78.8235 34.1165V14.2703C78.8235 13.9556 78.981 13.7978 79.2961 13.7978H89.4079C89.698 13.7978 89.9503 13.9046 90.1639 14.1191L93.9441 17.8993C94.1587 18.1006 94.2654 18.353 94.2654 18.6554V34.1165C94.2654 34.4312 94.1086 34.589 93.7929 34.589H88.7463C88.4316 34.589 88.2738 34.4312 88.2738 34.1165V19.4114C88.2738 18.8189 87.978 18.5231 87.3854 18.5231H84.8152V34.1165C84.8152 34.4312 84.6576 34.589 84.3426 34.589H79.2961ZM99.2515 34.589C98.9368 34.589 98.779 34.4312 98.779 34.1165V9.86638C98.779 9.55139 98.9368 9.39385 99.2515 9.39385H110.63C110.92 9.39385 111.172 9.49468 111.386 9.69626L115.166 13.4765C115.368 13.691 115.469 13.9424 115.469 14.2325V18.2018C115.469 18.3274 115.443 18.4286 115.393 18.5042C115.343 18.5798 115.267 18.6677 115.166 18.7688L112.199 21.4149L111.915 22.1143L112.199 22.6246L115.166 25.2708C115.267 25.3719 115.343 25.4598 115.393 25.5354C115.443 25.5987 115.469 25.6989 115.469 25.8378V29.7314C115.469 30.0338 115.368 30.2862 115.166 30.4875L111.386 34.2677C111.172 34.4822 110.92 34.589 110.63 34.589H99.2515ZM106.774 30.3363C107.82 30.3363 108.532 30.1284 108.91 29.7125C109.3 29.2967 109.496 28.5095 109.496 27.3499C109.496 26.178 109.3 25.3842 108.91 24.9683C108.532 24.5525 107.82 24.3446 106.774 24.3446C105.741 24.3446 105.029 24.5525 104.638 24.9683C104.26 25.3842 104.071 26.178 104.071 27.3499C104.071 28.5095 104.26 29.2967 104.638 29.7125C105.029 30.1284 105.741 30.3363 106.774 30.3363ZM106.774 19.6193C107.82 19.6193 108.532 19.4114 108.91 18.9956C109.3 18.5798 109.496 17.7926 109.496 16.633C109.496 15.4734 109.3 14.6862 108.91 14.2703C108.532 13.8545 107.82 13.6466 106.774 13.6466C105.741 13.6466 105.029 13.8545 104.638 14.2703C104.26 14.6862 104.071 15.4734 104.071 16.633C104.071 17.7926 104.26 18.5798 104.638 18.9956C105.029 19.4114 105.741 19.6193 106.774 19.6193ZM120.341 34.589C120.027 34.589 119.869 34.4312 119.869 34.1165V9.86638C119.869 9.55139 120.027 9.39385 120.341 9.39385H125.388C125.703 9.39385 125.861 9.55139 125.861 9.86638V34.1165C125.861 34.4312 125.703 34.589 125.388 34.589H120.341ZM134.752 34.589C134.461 34.589 134.21 34.4822 133.996 34.2677L130.215 30.4875C130.001 30.2862 129.894 30.0338 129.894 29.7314V18.6554C129.894 18.353 130.001 18.1006 130.215 17.8993L133.996 14.1191C134.21 13.9046 134.461 13.7978 134.752 13.7978H140.479C140.781 13.7978 141.033 13.9046 141.235 14.1191L145.015 17.8993C145.229 18.1006 145.336 18.353 145.336 18.6554V29.7314C145.336 30.0338 145.229 30.2862 145.015 30.4875L141.235 34.2677C141.033 34.4822 140.781 34.589 140.479 34.589H134.752ZM136.963 30.1851H138.286C138.69 30.1851 138.967 30.1028 139.118 29.9393C139.269 29.7759 139.345 29.4857 139.345 29.0699V19.3169C139.345 18.9011 139.269 18.611 139.118 18.4475C138.967 18.284 138.69 18.2018 138.286 18.2018H136.963C136.547 18.2018 136.264 18.284 136.112 18.4475C135.961 18.611 135.886 18.9011 135.886 19.3169V29.0699C135.886 29.4857 135.961 29.7759 136.112 29.9393C136.264 30.1028 136.547 30.1851 136.963 30.1851ZM155.882 34.589C155.631 34.589 155.378 34.5068 155.126 34.3433L152.045 32.2642L149.928 28.862C149.84 28.6985 149.765 28.5907 149.701 28.5407C149.639 28.4773 149.607 28.3516 149.607 28.1626V20.2242C149.607 20.0352 149.632 19.9095 149.683 19.8462C149.734 19.7828 149.815 19.6694 149.928 19.5059L151.856 16.2927L155.126 14.0435C155.239 13.9679 155.353 13.9112 155.466 13.8734C155.58 13.8233 155.719 13.7978 155.882 13.7978H159.152C159.468 13.7978 159.624 13.9556 159.624 14.2703V17.8048C159.624 17.906 159.612 18.0128 159.587 18.1262C159.574 18.2396 159.518 18.3274 159.417 18.3908L157.262 19.4681L155.599 21.6418V26.6884L157.356 28.6919L159.417 29.996C159.543 30.0717 159.606 30.1662 159.606 30.2796C159.619 30.3807 159.624 30.4809 159.624 30.582V34.1165C159.624 34.4312 159.468 34.589 159.152 34.589H155.882Z" fill="white"/>
<path d="M7.65494 26.6506H0V35.156H7.65494V26.6506Z" fill="#FF835D"/>
<path d="M33.1714 17.8615H20.0352V25.3275H33.1714V17.8615Z" fill="#FFD8CC"/>
<path d="M14.1758 17.8615H0V25.3275H14.1758V17.8615Z" fill="#FFA98E"/>
<path d="M33.1714 26.6506H20.0352V34.1165H33.1714V26.6506Z" fill="#FFA98E"/>
<path d="M33.1714 8.88351H20.0352V16.5385H33.1714V8.88351Z" fill="#FFA98E"/>
<path d="M33.1714 0H0V7.84396H33.1714V0Z" fill="#FF835D"/>
<path d="M7.65494 35.156H0V43H7.65494V35.156Z" fill="#FF835D"/>
<path d="M33.1715 35.156H8.88354V43H33.1715V35.156Z" fill="#FFA98E"/>
<path d="M7.65494 7.84396H0V16.5385H7.65494V7.84396Z" fill="#FF835D"/>
</svg>
