<svg width="26" height="25" viewBox="0 0 26 25" fill="none" xmlns="http://www.w3.org/2000/svg">
<path d="M21.6668 13.5417C21.6668 18.75 17.8752 21.3542 13.3685 22.8646C13.1325 22.9415 12.8762 22.9378 12.6427 22.8542C8.12516 21.3542 4.3335 18.75 4.3335 13.5417V6.25002C4.3335 5.97375 4.44763 5.7088 4.6508 5.51345C4.85396 5.3181 5.12951 5.20835 5.41683 5.20835C7.5835 5.20835 10.2918 3.95835 12.1768 2.37502C12.4063 2.18648 12.6983 2.08289 13.0002 2.08289C13.302 2.08289 13.594 2.18648 13.8235 2.37502C15.7193 3.96877 18.4168 5.20835 20.5835 5.20835C20.8708 5.20835 21.1464 5.3181 21.3495 5.51345C21.5527 5.7088 21.6668 5.97375 21.6668 6.25002V13.5417Z" stroke="white" stroke-width="1.4" stroke-linecap="round" stroke-linejoin="round"/>
<path d="M9.75 12.5L11.9167 14.5834L16.25 10.4167" stroke="#FF835D" stroke-width="1.4" stroke-linecap="round" stroke-linejoin="round"/>
</svg>
