<svg width="80" height="80" viewBox="0 0 80 80" fill="none" xmlns="http://www.w3.org/2000/svg">
<g filter="url(#filter0_d_135_134)">
<circle cx="40" cy="36" r="36" fill="url(#paint0_linear_135_134)"/>
<circle cx="40" cy="36" r="35.5" stroke="white" stroke-opacity="0.1"/>
</g>
<path d="M40 42.3334V50.25" stroke="#FF835D" stroke-width="2.5" stroke-linecap="round" stroke-linejoin="round"/>
<path d="M46.3333 39.1666V50.25" stroke="#FF835D" stroke-width="2.5" stroke-linecap="round" stroke-linejoin="round"/>
<path d="M52.6667 32.8334V50.25" stroke="#FF835D" stroke-width="2.5" stroke-linecap="round" stroke-linejoin="round"/>
<path d="M55.8334 21.75L42.1439 35.4395C42.0704 35.5132 41.983 35.5717 41.8868 35.6116C41.7907 35.6515 41.6875 35.6721 41.5834 35.6721C41.4793 35.6721 41.3762 35.6515 41.28 35.6116C41.1838 35.5717 41.0965 35.5132 41.0229 35.4395L35.8106 30.2272C35.6621 30.0788 35.4608 29.9954 35.2509 29.9954C35.041 29.9954 34.8396 30.0788 34.6912 30.2272L24.1667 40.75" stroke="#FF835D" stroke-width="2.5" stroke-linecap="round" stroke-linejoin="round"/>
<path d="M27.3333 45.5V50.25" stroke="#FF835D" stroke-width="2.5" stroke-linecap="round" stroke-linejoin="round"/>
<path d="M33.6667 39.1666V50.25" stroke="#FF835D" stroke-width="2.5" stroke-linecap="round" stroke-linejoin="round"/>
<defs>
<filter id="filter0_d_135_134" x="0" y="0" width="80" height="80" filterUnits="userSpaceOnUse" color-interpolation-filters="sRGB">
<feFlood flood-opacity="0" result="BackgroundImageFix"/>
<feColorMatrix in="SourceAlpha" type="matrix" values="0 0 0 0 0 0 0 0 0 0 0 0 0 0 0 0 0 0 127 0" result="hardAlpha"/>
<feOffset dy="4"/>
<feGaussianBlur stdDeviation="2"/>
<feComposite in2="hardAlpha" operator="out"/>
<feColorMatrix type="matrix" values="0 0 0 0 0 0 0 0 0 0 0 0 0 0 0 0 0 0 0.25 0"/>
<feBlend mode="normal" in2="BackgroundImageFix" result="effect1_dropShadow_135_134"/>
<feBlend mode="normal" in="SourceGraphic" in2="effect1_dropShadow_135_134" result="shape"/>
</filter>
<linearGradient id="paint0_linear_135_134" x1="40" y1="0" x2="40" y2="72" gradientUnits="userSpaceOnUse">
<stop stop-color="#060606"/>
<stop offset="1" stop-color="#0E0E0E"/>
</linearGradient>
</defs>
</svg>
